<?xml version="1.0" encoding="UTF-8"?>
<svg id="Layer_2" data-name="Layer 2" xmlns="http://www.w3.org/2000/svg" viewBox="0 0 691.72 133.01">
  <defs>
    <style>
      .cls-1, .cls-2 {
        fill: #fff;
      }

      .cls-2 {
        stroke: #fff;
        stroke-width: 3.99px;
      }
    </style>
  </defs>
  <g id="Infobox_Redesign" data-name="Infobox Redesign">
    <g>
      <path class="cls-2" d="M327.74,86.5h-45.88l-9.88,22h-9.9l38.4-84h8.76l38.4,84h-10.02l-9.88-22Zm-2.83-8l-20.11-45.02-20.11,45.02h40.23Z"/>
      <path class="cls-2" d="M419.78,108.5l-19.46-27.37c-2.19,.24-4.46,.37-6.81,.37h-22.87v27h-9V24.5h31.86c10.86,0,19.38,2.56,25.54,7.68,6.16,5.12,9.24,12.16,9.24,21.12,0,6.56-1.68,12.1-5.05,16.62-3.37,4.52-8.17,7.78-14.41,9.78l20.8,28.8h-9.85Zm-7.85-39.5c4.39-3.67,6.58-8.81,6.58-15.44s-2.19-11.99-6.58-15.62c-4.39-3.63-10.73-5.44-19.03-5.44h-22.26v42h22.26c8.3,0,14.64-1.83,19.03-5.5Z"/>
      <path class="cls-2" d="M506.64,66.5h9v31.97c-4.03,3.43-8.66,6.07-14.01,7.9-5.35,1.84-10.98,2.75-16.88,2.75-8.38,0-15.92-1.84-22.63-5.51-6.71-3.67-11.97-8.76-15.8-15.27-3.83-6.5-5.75-13.79-5.75-21.85s1.92-15.34,5.75-21.85c3.83-6.5,9.1-11.59,15.8-15.27,6.71-3.67,14.29-5.51,22.75-5.51,6.38,0,12.25,1.02,17.6,3.05,5.35,2.04,9.86,5.05,13.53,9.04l-5.51,5.63c-6.63-6.54-15.05-9.82-25.26-9.82-6.79,0-12.91,1.5-18.38,4.49-5.47,2.99-9.76,7.14-12.87,12.45-3.11,5.31-4.67,11.24-4.67,17.78s1.56,12.45,4.67,17.72c3.11,5.27,7.38,9.42,12.81,12.45,5.43,3.03,11.53,4.55,18.32,4.55,8.62,0,15.92-2.16,21.53-6.47v-28.26Z"/>
      <path class="cls-2" d="M548.76,99.69c-6.08-6.23-9.12-15.28-9.12-27.18V24.5h9v47.65c0,9.74,2.18,17,6.54,21.79,4.36,4.79,10.66,7.18,18.9,7.18s14.66-2.39,19.02-7.18c4.36-4.79,6.54-12.05,6.54-21.79V24.5h9v48.01c0,11.89-3.02,20.95-9.06,27.18-6.04,6.23-14.5,9.34-25.38,9.34s-19.36-3.11-25.44-9.34Z"/>
      <path class="cls-2" d="M640.58,106.14c-5.71-2-10.12-4.63-13.23-7.9l3.47-6.83c3.03,3.04,7.06,5.49,12.09,7.36,5.03,1.88,10.22,2.81,15.56,2.81,7.5,0,13.13-1.38,16.88-4.13,3.75-2.75,5.63-6.33,5.63-10.72,0-3.35-1.02-6.03-3.05-8.02-2.04-2-4.53-3.53-7.48-4.61-2.95-1.08-7.06-2.25-12.33-3.53-6.31-1.6-11.33-3.13-15.09-4.61-3.75-1.48-6.96-3.73-9.64-6.76-2.68-3.03-4.01-7.14-4.01-12.33,0-4.23,1.12-8.08,3.35-11.55,2.23-3.47,5.67-6.24,10.3-8.32,4.63-2.07,10.38-3.11,17.24-3.11,4.79,0,9.48,.66,14.07,1.98,4.59,1.32,8.56,3.13,11.91,5.45l-2.99,7.06c-3.51-2.31-7.26-4.05-11.25-5.21-3.99-1.16-7.9-1.74-11.73-1.74-7.34,0-12.87,1.42-16.58,4.25-3.71,2.83-5.57,6.49-5.57,10.96,0,3.35,1.02,6.05,3.05,8.08s4.59,3.59,7.66,4.67c3.07,1.08,7.2,2.26,12.39,3.53,6.15,1.52,11.11,3.01,14.91,4.49,3.79,1.48,7,3.71,9.64,6.7,2.63,2.99,3.95,7.05,3.95,12.15,0,4.23-1.14,8.08-3.41,11.55-2.27,3.47-5.77,6.23-10.48,8.26-4.71,2.04-10.5,3.05-17.36,3.05-6.23,0-12.19-1-17.9-2.99Z"/>
    </g>
    <g>
      <path class="cls-1" d="M110.75,97.76c7.7,0,27.21-8.8,24.87-31.98-2.19-21.74-20.06-29.6-24.87-31.98-4.65,2.56-22.69,10.24-24.87,31.98-2.33,23.18,17.18,31.98,24.87,31.98Z"/>
      <line class="cls-1" x1="180.64" y1="73.98" x2="210.64" y2="73.52"/>
      <path class="cls-1" d="M181.5,73.79c-5.61,8.99-17.38,29.38-39.4,42.86,15.33-10.37,23.04-41.02,23.04-41.02-2.23-3.99-8.8-13.04-17.28-17.28,2.34,23.57-10.02,52.17-37.1,52.96-27.08-.79-39.82-29.39-37.48-52.96-8.48,4.24-15.05,13.29-17.28,17.28,0,0,7.72,30.64,23.04,41.02-22.02-13.48-33.8-33.87-39.4-42.68H9.91c39.88,59.44,84.03,59.04,100.85,59.04,16.81,0,60.59,.4,100.47-59.68"/>
      <path class="cls-1" d="M110.37,17.05c-27.93,13.11-58.22,39.86-68.67,50.92H0c11.52-3.23,14.29-6.22,14.52-6.22,.18,0,27.69-26.16,43.78-37.31C72.22,14.81,88.12,5.2,110.37,0c20.88,4.02,38.53,14.81,52.46,24.45,16.1,11.14,43.6,37.31,43.78,37.31,.23,0,3,3,14.52,6.22h-41.71c-10.45-11.06-41.12-37.81-69.05-50.92Z"/>
    </g>
  </g>
</svg>