<?xml version="1.0" encoding="UTF-8"?>
<svg id="Layer_2" data-name="Layer 2" xmlns="http://www.w3.org/2000/svg" viewBox="0 0 92.06 92.06">
  <defs>
    <style>
      .cls-1 {
        fill: none;
        stroke: #7f87c2;
        stroke-width: 3.02px;
      }

      .cls-2 {
        fill: #7f87c2;
      }
    </style>
  </defs>
  <g id="Infobox_Redesign" data-name="Infobox Redesign">
    <g>
      <g>
        <path class="cls-2" d="M87.06,28.71l-8.14,18.31-4.11-7.41-3.29,5.55-3.5-7.81-4.11,.62-3.09,2.88-5.14-4.32,4.11,5.93-5.55,15.66-6.99,3.09-1.22-9.66-3.51-8.84-6.38,1.44-1.23-7.19,7.61-6.17,10.69,3.29,2.46-2.88-11.51-4.73-5.14,4.73-2.27-2.27,9.27-8.84-.75-.48,7.93-5.47,.83,.6,7.4-1.23,3.79-7.66c9.79,4.68,17.6,12.84,21.84,22.86Z"/>
        <polygon class="cls-2" points="84.46 57.51 84.46 64.19 78.09 72.11 80.15 63.88 77.27 65.12 77.27 61.21 83.03 56.28 82.62 47.23 84.46 57.51"/>
        <path class="cls-2" d="M65.22,5.85l-12.01,8.29-3.7-2.69-6.37,6.79,2.14,1.37-6.05,4.18v-3.7l1.81-18.29h0c1.64-.19,3.3-.28,5-.28,6.87,0,13.38,1.56,19.19,4.34Z"/>
        <path class="cls-2" d="M41.03,1.79h0s-6.54,10.49-6.54,10.49l-9.13,7.81,2.34-11.31-4.67-.88c5.36-3.24,11.46-5.38,17.99-6.11Z"/>
        <polygon class="cls-2" points="28.95 49.9 25.65 58.54 24.42 69.23 27.5 73.96 23.39 71.7 18.87 56.9 14.35 51.76 14.35 47.23 12.5 46.61 12.7 46.03 15.17 46.03 16.65 44.35 21.95 46.03 22.98 47.85 28.95 49.9"/>
        <path class="cls-2" d="M22.77,11.45l1.24,4.73-3.29,2.68-1.03-2.68-6.99,7.82,2.47,1.85,2.88-5.96,.99,.41,1.48,.62,1.85,7.41-1.85-1.85h-2.05v2.26l-6.38,9.05-2.67,1.64,.41,4.32,1.44-1.27,1.44,3.56-.19,.59-4.95-1.65-2.22-4.94,.99-7.4s-1.84-2.64-1.98-2.26h0c2.29-6.09,5.88-11.55,10.43-16.03l8-2.89Z"/>
      </g>
      <g>
        <path class="cls-1" d="M23.04,7.9c5.36-3.24,11.46-5.38,17.99-6.11,1.64-.18,3.3-.28,5-.28,6.87,0,13.38,1.56,19.19,4.34,9.79,4.68,17.6,12.84,21.84,22.86,2.25,5.32,3.5,11.17,3.5,17.32,0,24.59-19.93,44.52-44.52,44.52S1.51,70.62,1.51,46.03c0-5.51,1-10.79,2.83-15.66,2.29-6.09,5.88-11.55,10.43-16.03,2.48-2.45,5.24-4.61,8.24-6.42"/>
        <polygon class="cls-1" points="83.03 56.28 77.27 61.21 77.27 65.12 80.15 63.88 78.09 72.11 84.46 64.19 84.46 57.51 82.62 47.23 83.03 56.28"/>
      </g>
    </g>
  </g>
</svg>