<?xml version="1.0" encoding="UTF-8"?>
<svg id="Layer_2" data-name="Layer 2" xmlns="http://www.w3.org/2000/svg" viewBox="0 0 585.03 369.78">
  <defs>
    <style>
      .cls-1 {
        fill: #fff;
      }

      .cls-2 {
        fill: #464f94;
      }

      .cls-3 {
        fill: #535aa7;
        stroke: #7f87c2;
        stroke-miterlimit: 10;
        stroke-width: 15px;
      }

      .cls-4 {
        fill: #7f87c2;
      }

      .cls-5 {
        fill: none;
      }
    </style>
  </defs>
  <g id="Layer_1-2" data-name="Layer 1">
    <g>
      <path class="cls-2" d="M65.34,45.17h34.22c11.77,0,23.04-10.35,22.5-22.5S112.18,.17,99.56,.17h-34.22c-11.77,0-23.04,10.35-22.5,22.5s9.89,22.5,22.5,22.5h0Z"/>
      <path class="cls-2" d="M514.5,229.97c11.41,0-5.56,0,5.85,0s23.04-10.35,22.5-22.5c-.55-12.19-9.89-22.5-22.5-22.5-11.41,0,5.56,0-5.85,0s-23.04,10.35-22.5,22.5c.55,12.19,9.89,22.5,22.5,22.5h0Z"/>
      <path class="cls-2" d="M22.52,90.17C10.75,90.17-.53,100.52,.02,112.67s9.89,22.5,22.5,22.5H491.69c11.77,0,23.04-10.35,22.5-22.5-.55-12.19-9.89-22.5-22.5-22.5h-.22c-12.61,0-21.95-10.31-22.5-22.5-.54-12.15,10.73-22.5,22.5-22.5h36.22c11.77,0,23.04-10.35,22.5-22.5S540.3,.17,527.69,.17H207.53c-14.71,0-29.48-.39-44.19,0-.22,0-.44,0-.65,0-11.77,0-23.04,10.35-22.5,22.5s9.89,22.5,22.5,22.5h36.31l1.24-.09c12.61,0,21.95,10.31,22.5,22.5s-10.73,22.5-22.5,22.5"/>
      <path class="cls-2" d="M562.51,268.47c11.77,0,23.04,10.35,22.5,22.5s-9.89,22.5-22.5,22.5H93.34c-11.77,0-23.04-10.35-22.5-22.5,.55-12.19,9.89-22.5,22.5-22.5h.22c12.61,0,21.95-10.31,22.5-22.5,.54-12.15-10.73-22.5-22.5-22.5H57.34c-11.77,0-23.04-10.35-22.5-22.5s9.89-22.5,22.5-22.5H377.5c14.71,0,29.48-.39,44.19,0,.22,0,.44,0,.65,0,11.77,0,23.04,10.35,22.5,22.5-.55,12.19-9.89,22.5-22.5,22.5h-36.31l-1.24-.09c-12.61,0-21.95,10.31-22.5,22.5-.54,12.15,10.73,22.5,22.5,22.5"/>
      <rect class="cls-3" x="124.1" y="72.68" width="340" height="193" rx="57.6" ry="57.6"/>
      <g>
        <path class="cls-1" d="M294.23,184.55c5.01,0,17.71-5.73,16.21-20.83-1.43-14.13-13.08-19.27-16.21-20.83-3.06,1.69-14.78,6.64-16.21,20.83-1.56,15.1,11.2,20.83,16.21,20.83Z"/>
        <line class="cls-5" x1="339.67" y1="169.06" x2="359.2" y2="168.73"/>
        <path class="cls-1" d="M340.26,168.93c-3.65,5.86-11.33,19.14-25.65,27.93,9.96-6.77,14.97-26.69,14.97-26.69-1.43-2.6-5.73-8.46-11.26-11.26,1.5,15.36-6.51,33.98-24.15,34.5-17.64-.52-25.91-19.14-24.41-34.5-5.53,2.73-9.76,8.66-11.26,11.26,0,0,5.01,19.92,14.97,26.69-14.26-8.79-21.94-22.07-25.58-27.8h-19.33c25.97,38.67,54.68,38.41,65.62,38.41s39.45,.26,65.42-38.86"/>
        <path class="cls-1" d="M293.97,131.95c-18.23,8.59-37.89,25.97-44.72,33.2h-27.15c7.49-2.08,9.31-4.04,9.44-4.04s18.03-17.06,28.51-24.28c9.05-6.31,19.4-12.56,33.92-15.95,13.61,2.6,25.06,9.63,34.18,15.95,10.48,7.23,28.38,24.28,28.51,24.28s1.95,1.95,9.44,4.04h-27.15c-6.84-7.23-26.82-24.61-44.98-33.2h0Z"/>
      </g>
      <rect class="cls-4" x="124.1" y="354.08" width="340" height="14.4" rx="7.2" ry="7.2"/>
      <path class="cls-4" d="M524.3,368.47c.07,.7-.38,1.31-.94,1.31h-35.15c-.56,0-1.01-.61-.94-1.31,.79-8.06,8.78-14.39,18.51-14.39s17.72,6.33,18.51,14.39Z"/>
    </g>
  </g>
</svg>