<?xml version="1.0" encoding="UTF-8"?>
<svg id="Layer_2" data-name="Layer 2" xmlns="http://www.w3.org/2000/svg" viewBox="0 0 71.42 90.9">
  <defs>
    <style>
      .cls-1 {
        fill: #fff;
      }

      .cls-1, .cls-2, .cls-3, .cls-4, .cls-5, .cls-6, .cls-7 {
        stroke: #7f87c2;
      }

      .cls-1, .cls-3 {
        stroke-width: 1.39px;
      }

      .cls-2 {
        stroke-width: 2.15px;
      }

      .cls-2, .cls-8 {
        fill: #7f87c2;
      }

      .cls-3, .cls-5, .cls-6 {
        fill: none;
      }

      .cls-4 {
        stroke-width: 1.64px;
      }

      .cls-4, .cls-7 {
        fill: #fa4141;
      }

      .cls-5 {
        stroke-width: 2.41px;
      }

      .cls-6 {
        stroke-width: 1.34px;
      }

      .cls-7 {
        stroke-width: 2.62px;
      }
    </style>
  </defs>
  <g id="Infobox_Redesign" data-name="Infobox Redesign">
    <g>
      <circle class="cls-5" cx="32.44" cy="42.08" r="31.23"/>
      <line class="cls-5" x1="70.5" y1="90.11" x2="51.04" y2="67.17"/>
      <g>
        <polygon class="cls-2" points="44.22 1.07 48.89 39.65 52.6 1.07 44.22 1.07"/>
        <rect class="cls-2" x="46.13" y="45.2" width="6" height="6"/>
      </g>
      <g>
        <path class="cls-8" d="M25.42,25.08c5.55,0,10.05,4.18,10.05,9.34s-4.5,9.34-10.05,9.34-10.05-4.18-10.05-9.34,4.5-9.34,10.05-9.34Zm7.7,9.62c0-1.82-1.47-3.3-3.3-3.3s-3.3,1.47-3.3,3.3,1.47,3.3,3.3,3.3,3.3-1.47,3.3-3.3Zm-8.85,0c0-1.82-1.48-3.3-3.3-3.3s-3.3,1.47-3.3,3.3,1.47,3.3,3.3,3.3,3.3-1.47,3.3-3.3Z"/>
        <g>
          <ellipse class="cls-6" cx="25.42" cy="34.42" rx="10.05" ry="9.34"/>
          <circle class="cls-3" cx="20.97" cy="34.7" r="3.3"/>
          <circle class="cls-3" cx="29.83" cy="34.7" r="3.3"/>
        </g>
      </g>
      <line class="cls-1" x1="25.42" y1="42.32" x2="25.42" y2="47.35"/>
      <line class="cls-1" x1="28.26" y1="42.32" x2="28.26" y2="47.35"/>
      <line class="cls-1" x1="22.2" y1="42.32" x2="22.2" y2="47.35"/>
      <g>
        <line class="cls-7" x1="10.27" y1="44.27" x2="36.68" y2="55.64"/>
        <circle class="cls-4" cx="8.83" cy="45.82" r="1.24"/>
        <circle class="cls-4" cx="10.06" cy="42.52" r="1.24"/>
        <circle class="cls-4" cx="37.36" cy="57.84" r="1.24"/>
        <circle class="cls-4" cx="38.59" cy="54.54" r="1.24"/>
      </g>
      <g>
        <line class="cls-7" x1="39.97" y1="44.27" x2="13.57" y2="55.64"/>
        <circle class="cls-4" cx="41.41" cy="45.82" r="1.24"/>
        <circle class="cls-4" cx="40.18" cy="42.52" r="1.24"/>
        <circle class="cls-4" cx="12.88" cy="57.84" r="1.24"/>
        <circle class="cls-4" cx="11.66" cy="54.54" r="1.24"/>
      </g>
    </g>
  </g>
</svg>