<?xml version="1.0" encoding="UTF-8"?>
<svg id="Layer_2" data-name="Layer 2" xmlns="http://www.w3.org/2000/svg" viewBox="0 0 66.61 89.04">
  <defs>
    <style>
      .cls-1 {
        fill: #7f87c2;
      }
    </style>
  </defs>
  <g id="Infobox_Redesign" data-name="Infobox Redesign">
    <g>
      <path class="cls-1" d="M33.31,89.04l-3.69-3.14C5.08,65.03,.73,33.33,.56,31.99l-.56-4.3,3.99-1.68c.17-.07,17.87-7.7,24.49-18.29L33.31,0l4.83,7.72c6.63,10.61,24.32,18.22,24.49,18.29l3.98,1.68-.55,4.29c-.17,1.34-4.52,33.04-29.06,53.91l-3.69,3.14ZM3.08,29.47l.28,2.16c.17,1.3,4.37,31.95,28.09,52.12l1.85,1.58,1.86-1.58c23.72-20.17,27.92-50.82,28.09-52.12l.28-2.16-2.01-.85c-.19-.08-18.68-8.02-25.79-19.4l-2.43-3.88-2.43,3.88C23.79,20.56,5.86,28.3,5.1,28.62l-2.01,.85Z"/>
      <path class="cls-1" d="M33.31,80.3l-.84-.72C11.14,61.44,7.34,33.84,7.19,32.68l-.13-.98,.91-.38c.17-.07,17.46-7.46,24.24-18.29l1.1-1.76,1.1,1.76c6.77,10.84,24.06,18.22,24.24,18.29l.91,.38-.13,.98c-.15,1.17-3.95,28.76-25.28,46.91l-.84,.72ZM9.91,33.29c.86,4.93,5.7,27.96,23.4,43.59,17.7-15.64,22.54-38.66,23.4-43.59-3.62-1.64-16.62-7.99-23.4-17.27-6.77,9.28-19.77,15.63-23.4,17.27Z"/>
      <polygon class="cls-1" points="16.73 67.85 14.12 66.75 28.63 32.34 40.36 26.48 43.31 16.43 46.03 17.23 42.73 28.46 30.83 34.4 16.73 67.85"/>
      <polygon class="cls-1" points="36.03 83.86 30.58 47.29 40.27 26.86 42.82 28.07 33.5 47.72 38.83 83.44 36.03 83.86"/>
    </g>
  </g>
</svg>