<?xml version="1.0" encoding="UTF-8"?>
<svg id="Layer_2" data-name="Layer 2" xmlns="http://www.w3.org/2000/svg" viewBox="0 0 1152.64 133.01">
  <defs>
    <style>
      .cls-1 {
        fill: none;
      }
    </style>
  </defs>
  <g id="Layer_2-2" data-name="Layer 2">
    <g>
      <g>
        <path d="M110.75,97.76c7.7,0,27.21-8.8,24.87-31.98-2.19-21.74-20.06-29.6-24.87-31.98-4.65,2.56-22.69,10.24-24.87,31.98-2.33,23.18,17.18,31.98,24.87,31.98Z"/>
        <line class="cls-1" x1="180.64" y1="73.98" x2="210.64" y2="73.52"/>
        <path d="M181.5,73.79c-5.61,8.99-17.38,29.38-39.4,42.86,15.33-10.37,23.04-41.02,23.04-41.02-2.23-3.99-8.8-13.04-17.28-17.28,2.34,23.57-10.02,52.17-37.1,52.96-27.08-.79-39.82-29.39-37.48-52.96-8.48,4.24-15.05,13.29-17.28,17.28,0,0,7.72,30.64,23.04,41.02-22.02-13.48-33.8-33.87-39.4-42.68H9.91c39.88,59.44,84.03,59.04,100.85,59.04s60.59,.4,100.47-59.68"/>
        <path d="M110.37,17.05c-27.93,13.11-58.22,39.86-68.67,50.92H0c11.52-3.23,14.29-6.22,14.52-6.22,.18,0,27.69-26.16,43.78-37.31C72.22,14.81,88.12,5.2,110.37,0c20.88,4.02,38.53,14.81,52.46,24.45,16.1,11.14,43.6,37.31,43.78,37.31,.23,0,3,3,14.52,6.22h-41.71c-10.45-11.06-41.12-37.81-69.05-50.92h0Z"/>
      </g>
      <g>
        <path d="M255.36,28.78h-34.23v-8.91h78.75v8.91h-34.22V117.27h-10.3V28.78Z"/>
        <path d="M373.41,51.53c5.43,5.33,8.14,13.1,8.14,23.3v42.44h-9.88v-41.46c0-7.6-1.9-13.4-5.71-17.39-3.8-3.99-9.23-5.98-16.28-5.98-7.89,0-14.13,2.34-18.72,7.03s-6.88,11.15-6.88,19.41v38.4h-9.88V14.03h9.88V56.89c2.69-4.26,6.4-7.56,11.13-9.88,4.73-2.32,10.16-3.48,16.28-3.48,9.18,0,16.49,2.67,21.92,8Z"/>
        <path d="M428.23,47.28c4.59-2.5,10.28-3.75,17.05-3.75v9.6l-2.37-.14c-7.7,0-13.73,2.37-18.09,7.09-4.36,4.73-6.54,11.36-6.54,19.9v37.29h-9.88V44.08h9.46v14.33c2.32-4.91,5.77-8.62,10.37-11.13Z"/>
        <path d="M526.11,83.74h-61.22c.56,7.61,3.48,13.75,8.77,18.44,5.29,4.68,11.96,7.03,20.04,7.03,4.54,0,8.71-.82,12.52-2.43,3.8-1.62,7.1-4.01,9.88-7.17l5.57,6.4c-3.24,3.9-7.3,6.87-12.17,8.91-4.87,2.04-10.22,3.06-16.07,3.06-7.51,0-14.16-1.6-19.96-4.8-5.8-3.2-10.32-7.63-13.56-13.29-3.25-5.66-4.87-12.06-4.87-19.2s1.56-13.54,4.66-19.2c3.11-5.66,7.37-10.07,12.8-13.22,5.42-3.15,11.52-4.73,18.3-4.73s12.85,1.58,18.22,4.73c5.38,3.15,9.6,7.54,12.66,13.15,3.06,5.61,4.59,12.04,4.59,19.27l-.14,3.06Zm-53.08-24.97c-4.78,4.5-7.49,10.37-8.14,17.6h51.9c-.65-7.24-3.36-13.1-8.14-17.6-4.78-4.5-10.74-6.75-17.88-6.75s-12.96,2.25-17.74,6.75Z"/>
        <path d="M591.92,50.69c5.1,4.78,7.65,11.85,7.65,21.22v45.36h-9.46v-11.41c-2.23,3.8-5.5,6.77-9.81,8.91s-9.44,3.2-15.38,3.2c-8.16,0-14.66-1.95-19.48-5.84-4.82-3.9-7.24-9.05-7.24-15.44s2.25-11.22,6.75-15.03c4.5-3.8,11.66-5.71,21.5-5.71h23.23v-4.46c0-6.3-1.77-11.1-5.29-14.4-3.53-3.29-8.67-4.94-15.44-4.94-4.64,0-9.09,.77-13.36,2.3-4.27,1.53-7.93,3.64-10.99,6.33l-4.45-7.37c3.71-3.15,8.16-5.59,13.36-7.31,5.19-1.72,10.67-2.57,16.42-2.57,9.55,0,16.88,2.39,21.98,7.16Zm-11.13,55.66c3.99-2.55,6.96-6.24,8.91-11.06v-11.97h-22.96c-12.52,0-18.78,4.36-18.78,13.08,0,4.26,1.62,7.63,4.87,10.08,3.24,2.46,7.79,3.69,13.64,3.69s10.34-1.27,14.33-3.83Z"/>
        <path d="M664.97,112.82c-1.86,1.66-4.16,2.94-6.89,3.82-2.73,.88-5.59,1.32-8.55,1.32-6.87,0-12.15-1.86-15.86-5.57-3.71-3.71-5.57-8.95-5.57-15.72V52.44h-13.08v-8.35h13.08v-16h9.88v16h22.26v8.35h-22.26v43.68c0,4.36,1.09,7.68,3.27,9.95,2.18,2.27,5.31,3.41,9.39,3.41,2.04,0,4.01-.32,5.92-.97,1.9-.65,3.54-1.58,4.94-2.79l3.48,7.1Z"/>
        <path d="M751.51,117.27l-22.26-31.31c-2.51,.28-5.1,.42-7.79,.42h-26.16v30.89h-10.29V19.88h36.45c12.43,0,22.16,2.97,29.22,8.91,7.04,5.93,10.57,14.1,10.57,24.49,0,7.61-1.92,14.03-5.77,19.27-3.85,5.24-9.34,9.02-16.49,11.34l23.79,33.39h-11.27Zm-8.21-46.06c5.1-4.26,7.65-10.25,7.65-17.95s-2.55-13.93-7.65-18.16c-5.1-4.22-12.48-6.33-22.12-6.33h-25.88v48.84h25.88c9.65,0,17.02-2.13,22.12-6.4Z"/>
        <path d="M847.23,83.74h-61.22c.56,7.61,3.48,13.75,8.77,18.44,5.29,4.68,11.96,7.03,20.04,7.03,4.54,0,8.71-.82,12.52-2.43,3.8-1.62,7.1-4.01,9.88-7.17l5.57,6.4c-3.24,3.9-7.3,6.87-12.17,8.91-4.87,2.04-10.22,3.06-16.07,3.06-7.51,0-14.16-1.6-19.96-4.8s-10.32-7.63-13.56-13.29c-3.25-5.66-4.87-12.06-4.87-19.2s1.56-13.54,4.66-19.2c3.11-5.66,7.37-10.07,12.8-13.22,5.42-3.15,11.52-4.73,18.3-4.73s12.85,1.58,18.22,4.73c5.38,3.15,9.6,7.54,12.66,13.15,3.06,5.61,4.59,12.04,4.59,19.27l-.14,3.06Zm-53.08-24.97c-4.78,4.5-7.49,10.37-8.14,17.6h51.9c-.65-7.24-3.36-13.1-8.14-17.6-4.78-4.5-10.74-6.75-17.88-6.75s-12.96,2.25-17.74,6.75Z"/>
        <path d="M878.47,113.23c-5.7-3.15-10.18-7.58-13.42-13.29-3.25-5.7-4.87-12.13-4.87-19.27s1.62-13.54,4.87-19.2c3.24-5.66,7.72-10.07,13.42-13.22,5.71-3.15,12.18-4.73,19.41-4.73,6.31,0,11.94,1.23,16.9,3.69,4.96,2.46,8.88,6.05,11.75,10.78l-7.37,5c-2.42-3.62-5.47-6.33-9.18-8.14-3.71-1.81-7.74-2.72-12.1-2.72-5.29,0-10.04,1.18-14.26,3.55-4.22,2.37-7.52,5.73-9.88,10.09-2.37,4.36-3.55,9.32-3.55,14.89s1.18,10.64,3.55,14.95c2.36,4.31,5.66,7.65,9.88,10.02,4.22,2.37,8.97,3.55,14.26,3.55,4.36,0,8.39-.88,12.1-2.64,3.71-1.76,6.77-4.46,9.18-8.07l7.37,5.01c-2.88,4.73-6.82,8.33-11.83,10.78-5,2.46-10.62,3.69-16.83,3.69-7.24,0-13.71-1.58-19.41-4.73Z"/>
        <path d="M955.48,113.16c-5.66-3.2-10.11-7.63-13.36-13.29-3.25-5.66-4.87-12.06-4.87-19.2s1.62-13.54,4.87-19.2c3.24-5.66,7.69-10.07,13.36-13.22,5.66-3.15,12.01-4.73,19.06-4.73s13.4,1.58,19.06,4.73c5.66,3.15,10.09,7.56,13.29,13.22,3.2,5.66,4.8,12.06,4.8,19.2s-1.6,13.54-4.8,19.2c-3.2,5.66-7.63,10.09-13.29,13.29-5.66,3.2-12.01,4.8-19.06,4.8s-13.41-1.6-19.06-4.8Zm33.05-7.51c4.13-2.37,7.35-5.73,9.67-10.09,2.32-4.36,3.48-9.32,3.48-14.88s-1.16-10.53-3.48-14.89c-2.32-4.36-5.54-7.72-9.67-10.09s-8.79-3.55-13.98-3.55-9.86,1.18-13.98,3.55-7.38,5.73-9.74,10.09c-2.37,4.36-3.55,9.32-3.55,14.89s1.18,10.52,3.55,14.88c2.36,4.36,5.61,7.72,9.74,10.09s8.79,3.55,13.98,3.55,9.86-1.18,13.98-3.55Z"/>
        <path d="M1051.69,47.28c4.59-2.5,10.28-3.75,17.05-3.75v9.6l-2.37-.14c-7.7,0-13.73,2.37-18.09,7.09-4.36,4.73-6.54,11.36-6.54,19.9v37.29h-9.88V44.08h9.46v14.33c2.32-4.91,5.77-8.62,10.37-11.13Z"/>
        <path d="M1152.64,14.03V117.27h-9.47v-14.47c-2.97,4.92-6.88,8.67-11.75,11.27-4.87,2.6-10.37,3.9-16.49,3.9-6.86,0-13.08-1.58-18.64-4.73-5.57-3.15-9.92-7.56-13.08-13.21-3.15-5.66-4.73-12.11-4.73-19.34s1.58-13.68,4.73-19.34c3.15-5.66,7.51-10.04,13.08-13.15,5.57-3.11,11.78-4.66,18.64-4.66,5.94,0,11.29,1.23,16.07,3.69s8.7,6.05,11.76,10.78V14.03h9.88Zm-23.03,91.62c4.13-2.37,7.38-5.73,9.74-10.09,2.37-4.36,3.55-9.32,3.55-14.88s-1.18-10.53-3.55-14.89c-2.36-4.36-5.61-7.72-9.74-10.09s-8.74-3.55-13.84-3.55-9.86,1.18-13.98,3.55-7.38,5.73-9.74,10.09c-2.37,4.36-3.55,9.32-3.55,14.89s1.18,10.52,3.55,14.88c2.36,4.36,5.61,7.72,9.74,10.09s8.79,3.55,13.98,3.55,9.71-1.18,13.84-3.55Z"/>
      </g>
    </g>
  </g>
</svg>