<?xml version="1.0" encoding="utf-8"?>
<!-- Generator: Adobe Illustrator 27.0.1, SVG Export Plug-In . SVG Version: 6.00 Build 0)  -->
<svg version="1.1" id="Layer_2_00000165194411321076814790000002674370358370608040_"
	 xmlns="http://www.w3.org/2000/svg" xmlns:xlink="http://www.w3.org/1999/xlink" x="0px" y="0px" viewBox="0 0 1296 133"
	 style="enable-background:new 0 0 1296 133;" xml:space="preserve">
<style type="text/css">
	.st0{fill:#FFFFFF;}
	.st1{fill:none;}
</style>
<g id="Layer_2-2">
	<g>
		<g>
			<path class="st0" d="M110.8,97.8c7.7,0,27.2-8.8,24.9-32c-2.2-21.7-20.1-29.6-24.9-32c-4.7,2.6-22.7,10.2-24.9,32
				C83.5,89,103.1,97.8,110.8,97.8z"/>
			<line class="st1" x1="180.6" y1="74" x2="210.6" y2="73.5"/>
			<path class="st0" d="M181.5,73.8c-5.6,9-17.4,29.4-39.4,42.9c15.3-10.4,23-41,23-41c-2.2-4-8.8-13-17.3-17.3
				c2.3,23.6-10,52.2-37.1,53c-27.1-0.8-39.8-29.4-37.5-53c-8.5,4.2-15,13.3-17.3,17.3c0,0,7.7,30.6,23,41
				C57,103.2,45.2,82.8,39.6,74H9.9c39.9,59.4,84,59,100.8,59s60.6,0.4,100.5-59.7"/>
			<path class="st0" d="M110.4,17C82.4,30.2,52.2,56.9,41.7,68H0c11.5-3.2,14.3-6.2,14.5-6.2c0.2,0,27.7-26.2,43.8-37.3
				C72.2,14.8,88.1,5.2,110.4,0c20.9,4,38.5,14.8,52.5,24.5c16.1,11.1,43.6,37.3,43.8,37.3c0.2,0,3,3,14.5,6.2h-41.7
				C169,56.9,138.3,30.2,110.4,17L110.4,17L110.4,17z"/>
		</g>
		<g>
			<path class="st0" d="M305.4,28.8h-34.2v-8.9h78.8v8.9h-34.2v88.5h-10.3V28.8z"/>
			<path class="st0" d="M423.4,51.5c5.4,5.3,8.1,13.1,8.1,23.3v42.4h-9.9V75.8c0-7.6-1.9-13.4-5.7-17.4c-3.8-4-9.2-6-16.3-6
				c-7.9,0-14.1,2.3-18.7,7s-6.9,11.1-6.9,19.4v38.4h-9.9V14h9.9v42.9c2.7-4.3,6.4-7.6,11.1-9.9s10.2-3.5,16.3-3.5
				C410.7,43.5,418,46.2,423.4,51.5L423.4,51.5z"/>
			<path class="st0" d="M478.2,47.3c4.6-2.5,10.3-3.8,17-3.8v9.6l-2.4-0.1c-7.7,0-13.7,2.4-18.1,7.1c-4.4,4.7-6.5,11.4-6.5,19.9
				v37.3h-9.9V44.1h9.5v14.3C470.2,53.5,473.6,49.8,478.2,47.3L478.2,47.3z"/>
			<path class="st0" d="M576.1,83.7h-61.2c0.6,7.6,3.5,13.8,8.8,18.4c5.3,4.7,12,7,20,7c4.5,0,8.7-0.8,12.5-2.4
				c3.8-1.6,7.1-4,9.9-7.2l5.6,6.4c-3.2,3.9-7.3,6.9-12.2,8.9c-4.9,2-10.2,3.1-16.1,3.1c-7.5,0-14.2-1.6-20-4.8
				c-5.8-3.2-10.3-7.6-13.6-13.3c-3.2-5.7-4.9-12.1-4.9-19.2s1.6-13.5,4.7-19.2c3.1-5.7,7.4-10.1,12.8-13.2
				c5.4-3.2,11.5-4.7,18.3-4.7c6.8,0,12.9,1.6,18.2,4.7c5.4,3.2,9.6,7.5,12.7,13.1s4.6,12,4.6,19.3L576.1,83.7L576.1,83.7z
				 M523,58.8c-4.8,4.5-7.5,10.4-8.1,17.6h51.9c-0.7-7.2-3.4-13.1-8.1-17.6c-4.8-4.5-10.7-6.8-17.9-6.8S527.8,54.3,523,58.8z"/>
			<path class="st0" d="M641.9,50.7c5.1,4.8,7.7,11.9,7.7,21.2v45.4h-9.5v-11.4c-2.2,3.8-5.5,6.8-9.8,8.9s-9.4,3.2-15.4,3.2
				c-8.2,0-14.7-1.9-19.5-5.8c-4.8-3.9-7.2-9.1-7.2-15.4s2.2-11.2,6.8-15c4.5-3.8,11.7-5.7,21.5-5.7h23.2v-4.5
				c0-6.3-1.8-11.1-5.3-14.4c-3.5-3.3-8.7-4.9-15.4-4.9c-4.6,0-9.1,0.8-13.4,2.3c-4.3,1.5-7.9,3.6-11,6.3l-4.5-7.4
				c3.7-3.2,8.2-5.6,13.4-7.3c5.2-1.7,10.7-2.6,16.4-2.6C629.5,43.5,636.8,45.9,641.9,50.7L641.9,50.7z M630.8,106.3
				c4-2.6,7-6.2,8.9-11.1v-12h-23c-12.5,0-18.8,4.4-18.8,13.1c0,4.3,1.6,7.6,4.9,10.1c3.2,2.5,7.8,3.7,13.6,3.7
				S626.8,108.9,630.8,106.3L630.8,106.3z"/>
			<path class="st0" d="M715,112.8c-1.9,1.7-4.2,2.9-6.9,3.8c-2.7,0.9-5.6,1.3-8.5,1.3c-6.9,0-12.2-1.9-15.9-5.6
				c-3.7-3.7-5.6-8.9-5.6-15.7V52.4H665v-8.4h13.1v-16h9.9v16h22.3v8.3H688v43.7c0,4.4,1.1,7.7,3.3,9.9s5.3,3.4,9.4,3.4
				c2,0,4-0.3,5.9-1c1.9-0.7,3.5-1.6,4.9-2.8L715,112.8L715,112.8z"/>
			<path class="st0" d="M801.5,117.3L779.2,86c-2.5,0.3-5.1,0.4-7.8,0.4h-26.2v30.9H735V19.9h36.5c12.4,0,22.2,3,29.2,8.9
				c7,5.9,10.6,14.1,10.6,24.5c0,7.6-1.9,14-5.8,19.3c-3.8,5.2-9.3,9-16.5,11.3l23.8,33.4L801.5,117.3L801.5,117.3z M793.3,71.2
				c5.1-4.3,7.7-10.2,7.7-18s-2.5-13.9-7.7-18.2c-5.1-4.2-12.5-6.3-22.1-6.3h-25.9v48.8h25.9C780.8,77.6,788.2,75.5,793.3,71.2z"/>
			<path class="st0" d="M897.2,83.7H836c0.6,7.6,3.5,13.8,8.8,18.4c5.3,4.7,12,7,20,7c4.5,0,8.7-0.8,12.5-2.4c3.8-1.6,7.1-4,9.9-7.2
				l5.6,6.4c-3.2,3.9-7.3,6.9-12.2,8.9c-4.9,2-10.2,3.1-16.1,3.1c-7.5,0-14.2-1.6-20-4.8s-10.3-7.6-13.6-13.3
				c-3.2-5.7-4.9-12.1-4.9-19.2s1.6-13.5,4.7-19.2c3.1-5.7,7.4-10.1,12.8-13.2c5.4-3.2,11.5-4.7,18.3-4.7s12.8,1.6,18.2,4.7
				c5.4,3.2,9.6,7.5,12.7,13.1s4.6,12,4.6,19.3L897.2,83.7L897.2,83.7z M844.1,58.8c-4.8,4.5-7.5,10.4-8.1,17.6h51.9
				c-0.7-7.2-3.4-13.1-8.1-17.6S869,52,861.9,52S848.9,54.3,844.1,58.8z"/>
			<path class="st0" d="M928.5,113.2c-5.7-3.2-10.2-7.6-13.4-13.3c-3.2-5.7-4.9-12.1-4.9-19.3s1.6-13.5,4.9-19.2
				c3.2-5.7,7.7-10.1,13.4-13.2c5.7-3.2,12.2-4.7,19.4-4.7c6.3,0,11.9,1.2,16.9,3.7s8.9,6,11.8,10.8l-7.4,5
				c-2.4-3.6-5.5-6.3-9.2-8.1s-7.7-2.7-12.1-2.7c-5.3,0-10,1.2-14.3,3.5c-4.2,2.4-7.5,5.7-9.9,10.1c-2.4,4.4-3.5,9.3-3.5,14.9
				s1.2,10.6,3.5,14.9c2.4,4.3,5.7,7.7,9.9,10c4.2,2.4,9,3.6,14.3,3.6c4.4,0,8.4-0.9,12.1-2.6c3.7-1.8,6.8-4.5,9.2-8.1l7.4,5
				c-2.9,4.7-6.8,8.3-11.8,10.8c-5,2.5-10.6,3.7-16.8,3.7C940.6,117.9,934.2,116.4,928.5,113.2L928.5,113.2z"/>
			<path class="st0" d="M1005.5,113.2c-5.7-3.2-10.1-7.6-13.4-13.3c-3.2-5.7-4.9-12.1-4.9-19.2s1.6-13.5,4.9-19.2
				c3.2-5.7,7.7-10.1,13.4-13.2c5.7-3.2,12-4.7,19.1-4.7c7,0,13.4,1.6,19.1,4.7c5.7,3.2,10.1,7.6,13.3,13.2
				c3.2,5.7,4.8,12.1,4.8,19.2s-1.6,13.5-4.8,19.2c-3.2,5.7-7.6,10.1-13.3,13.3c-5.7,3.2-12,4.8-19.1,4.8
				C1017.5,118,1011.1,116.4,1005.5,113.2z M1038.5,105.7c4.1-2.4,7.3-5.7,9.7-10.1s3.5-9.3,3.5-14.9s-1.2-10.5-3.5-14.9
				s-5.5-7.7-9.7-10.1c-4.1-2.4-8.8-3.5-14-3.5c-5.2,0-9.9,1.2-14,3.5s-7.4,5.7-9.7,10.1c-2.4,4.4-3.5,9.3-3.5,14.9
				s1.2,10.5,3.5,14.9c2.4,4.4,5.6,7.7,9.7,10.1s8.8,3.6,14,3.6C1029.7,109.2,1034.4,108,1038.5,105.7z"/>
			<path class="st0" d="M1101.7,47.3c4.6-2.5,10.3-3.8,17.1-3.8v9.6l-2.4-0.1c-7.7,0-13.7,2.4-18.1,7.1c-4.4,4.7-6.5,11.4-6.5,19.9
				v37.3h-9.9V44.1h9.5v14.3C1093.6,53.5,1097.1,49.8,1101.7,47.3z"/>
			<path class="st0" d="M1202.6,14v103.2h-9.5v-14.5c-3,4.9-6.9,8.7-11.8,11.3s-10.4,3.9-16.5,3.9c-6.9,0-13.1-1.6-18.6-4.7
				c-5.6-3.2-9.9-7.6-13.1-13.2c-3.2-5.7-4.7-12.1-4.7-19.3s1.6-13.7,4.7-19.3s7.5-10,13.1-13.1c5.6-3.1,11.8-4.7,18.6-4.7
				c5.9,0,11.3,1.2,16.1,3.7s8.7,6,11.8,10.8V14H1202.6z M1179.6,105.7c4.1-2.4,7.4-5.7,9.7-10.1c2.4-4.4,3.6-9.3,3.6-14.9
				s-1.2-10.5-3.6-14.9c-2.4-4.4-5.6-7.7-9.7-10.1s-8.7-3.5-13.8-3.5s-9.9,1.2-14,3.5s-7.4,5.7-9.7,10.1c-2.4,4.4-3.6,9.3-3.6,14.9
				s1.2,10.5,3.6,14.9c2.4,4.4,5.6,7.7,9.7,10.1s8.8,3.6,14,3.6S1175.5,108,1179.6,105.7z"/>
		</g>
	</g>
</g>
</svg>
